<svg width="15" height="20" viewBox="0 0 15 20" fill="none" xmlns="http://www.w3.org/2000/svg">
<path d="M12.81 7.53C10.97 7.85 9.94 8.03 9.72 8.07L7.77 8.4C7.77 9.44 7.78 10.53 7.8 11.67C7.84 12.81 7.89 13.81 7.95 14.67C8.03 15.83 8.17 16.72 8.37 17.34C8.57 17.96 8.68 18.31 8.7 18.39C8.7 18.59 8.57 18.77 8.31 18.93C8.07 19.11 7.84 19.2 7.62 19.2C7.5 19.2 7.4 19.16 7.32 19.08C7.24 19.02 7.17 18.91 7.11 18.75C6.99 18.47 6.87 17.95 6.75 17.19C6.65 16.43 6.57 15.59 6.51 14.67C6.45 13.85 6.4 12.9 6.36 11.82C6.34 10.72 6.33 9.66 6.33 8.64C5.21 8.82 4.06 9.04 2.88 9.3C1.82 9.52 1.19 9.63 0.99 9.63C0.75 9.63 0.52 9.56 0.3 9.42C0.1 9.28 0 9.09 0 8.85C0 8.59 0.09 8.42 0.27 8.34C0.45 8.26 0.75 8.22 1.17 8.22C1.47 8.22 1.91 8.17 2.49 8.07C3.07 7.95 3.44 7.87 3.6 7.83C4.94 7.57 5.85 7.4 6.33 7.32C6.33 6.9 6.31 6.35 6.27 5.67C6.23 4.75 6.21 4.05 6.21 3.57C6.21 2.79 6.23 2.19 6.27 1.77C6.33 1.33 6.43 0.94 6.57 0.599999C6.73 0.2 7.03 0 7.47 0C7.65 0 7.77 0.0299996 7.83 0.0899988C7.89 0.149999 7.92 0.26 7.92 0.42C7.92 0.54 7.87 0.889999 7.77 1.47C7.67 2.05 7.62 2.82 7.62 3.78C7.62 4.52 7.64 5.35 7.68 6.27L7.71 7.08C8.61 6.94 10.39 6.57 13.05 5.97C13.21 5.93 13.34 5.79 13.44 5.55C13.56 5.31 13.68 5.19 13.8 5.19C14.02 5.19 14.24 5.32 14.46 5.58C14.7 5.82 14.82 6.07 14.82 6.33C14.82 6.67 14.67 6.93 14.37 7.11C14.09 7.29 13.57 7.43 12.81 7.53Z" fill="black"/>
</svg>
