<svg width="19" height="19" viewBox="0 0 19 19" fill="none" xmlns="http://www.w3.org/2000/svg">
<path d="M16.5916 3.19883C14.8549 1.23945 12.3277 0 9.5 0C4.25273 0 0 4.25273 0 9.5H2.375C2.375 5.5627 5.5627 2.375 9.5 2.375C11.6709 2.375 13.5969 3.3584 14.8994 4.89102L12.6654 7.125H19V0.79043L16.5916 3.19883ZM9.5 16.625C7.3291 16.625 5.40312 15.6416 4.10059 14.109L6.33457 11.875H0V18.2096L2.4084 15.8012C4.14512 17.7605 6.67598 19 9.5 19C14.7473 19 19 14.7473 19 9.5H16.625C16.625 13.4373 13.4373 16.625 9.5 16.625Z" fill="black"/>
</svg>
