<svg width="24" height="23" viewBox="0 0 24 23" fill="none" xmlns="http://www.w3.org/2000/svg">
<path d="M1.66401 8.40583L0.0349536 17.5998C-0.0172599 17.8945 -0.0109578 18.1805 0.0538599 18.4579C0.118678 18.7354 0.229887 18.9868 0.38749 19.2123C0.545092 19.4378 0.743025 19.6286 0.981289 19.7848C1.21955 19.941 1.48602 20.0452 1.7807 20.0974L17.3397 22.8543C17.6344 22.9065 17.9205 22.9002 18.1979 22.8354C18.4753 22.7706 18.7268 22.6594 18.9522 22.5018C19.1777 22.3441 19.3685 22.1462 19.5247 21.908C19.6809 21.6697 19.7851 21.4032 19.8373 21.1085L20.8301 15.506C20.8784 15.2334 20.9184 14.9859 20.9502 14.7636C20.982 14.5413 21.0131 14.3227 21.0436 14.1077C21.0741 13.8928 21.1096 13.6711 21.15 13.4427C21.1905 13.2144 21.249 12.9702 21.3254 12.7102C21.3676 12.5581 21.4145 12.4221 21.4661 12.302C21.5178 12.182 21.5695 12.062 21.6211 11.942C21.6728 11.822 21.7305 11.7106 21.7943 11.6079C21.8581 11.5053 21.9234 11.3725 21.9902 11.2096L23.3328 8.19921L4.97695 0.000308913L2.63357 5.24959L15.0019 10.7691L1.66401 8.40583ZM16.1152 6.54422L19.5058 8.05678L15.2714 9.31244L11.8809 7.79988L16.1152 6.54422ZM9.86224 6.90653L6.4626 5.38097L10.695 4.13636L14.0966 5.65087L9.86224 6.90653ZM21.4132 8.99881L20.2672 11.5425L17.2881 10.2168L21.4132 8.99881ZM5.70115 1.89522L8.67836 3.23196L4.56429 4.45195L5.70115 1.89522ZM2.82785 10.0709L19.8013 13.0784L18.4229 20.8579C18.389 21.0495 18.2896 21.2028 18.1248 21.318C17.96 21.4332 17.7819 21.4738 17.5903 21.4398L2.03133 18.683C1.83979 18.649 1.68643 18.5497 1.57126 18.3849C1.45609 18.2201 1.41547 18.042 1.44941 17.8504L2.82785 10.0709Z" fill="black"/>
</svg>
